    <svg width="60" height="60" viewBox="0 0 60 60" fill="none" xmlns="http://www.w3.org/2000/svg">
    <path d="M52.1965 37.4609H50.7305C56.9073 29.5865 56.3863 18.1292 49.1404 10.877C45.3507 7.08419 40.3115 4.99451 34.9517 4.99451C29.5918 4.99451 24.5526 7.08419 20.7624 10.877C20.3473 11.2926 20.3473 11.967 20.7634 12.3816C21.178 12.7973 21.8524 12.7973 22.2681 12.3816C25.6562 8.98994 30.1608 7.12264 34.9517 7.12264C39.7425 7.12264 44.2471 8.98994 47.6347 12.3816C53.948 18.6992 54.5429 28.5837 49.4599 35.5992V34.7208C49.4599 34.1326 48.9835 33.6567 48.3959 33.6567C47.8082 33.6567 47.3318 34.1326 47.3318 34.7208V38.4825C47.3202 38.7693 47.4165 39.0589 47.6357 39.2773C47.843 39.4852 48.1153 39.5891 48.3875 39.5891C48.389 39.5891 48.3903 39.5882 48.3918 39.5882C48.3932 39.5882 48.3944 39.5891 48.3959 39.5891H52.1965C52.7841 39.5891 53.2605 39.1132 53.2605 38.525C53.2605 37.9369 52.7841 37.4609 52.1965 37.4609Z" fill="currentColor"/>
    <path d="M43.1728 16.7523C42.7452 16.6006 42.2693 16.7408 41.9887 17.0983L37.2384 23.1211C36.9859 23.4411 36.9386 23.8776 37.1163 24.2444C37.2945 24.6112 37.666 24.8439 38.0738 24.8439H41.7601V26.9139C41.7601 27.502 42.2366 27.9779 42.8242 27.9779C43.4118 27.9779 43.8883 27.502 43.8883 26.9139V24.8439H45.1404C45.728 24.8439 46.2045 24.368 46.2045 23.7799C46.2045 23.1917 45.728 22.7158 45.1404 22.7158H43.8883V17.7571C43.8883 17.304 43.6009 16.9009 43.1728 16.7523ZM41.7601 22.7158H40.2685L41.7601 20.8246V22.7158Z" fill="currentColor"/>
    <path d="M29.6814 26.0763C29.3239 26.3558 29.1837 26.8317 29.3317 27.2609C29.4798 27.69 29.8835 27.9779 30.3376 27.9779H36.137C36.7246 27.9779 37.201 27.5019 37.201 26.9138C37.201 26.3257 36.7246 25.8497 36.137 25.8497H33.2155C34.1647 24.953 34.9711 24.0572 35.6522 23.147C36.7636 21.6631 37.1085 20.2551 36.6778 18.9603C36.1671 17.4245 34.8381 16.5153 33.2965 16.614C31.5679 16.7376 30.1355 18.0698 29.8123 19.855C29.7074 20.4328 30.0913 20.9866 30.6696 21.0916C31.2531 21.1955 31.8017 20.8121 31.9062 20.2333C32.0813 19.2679 32.8279 18.7816 33.4477 18.7369C33.774 18.7099 34.3808 18.7982 34.6588 19.6316C34.8588 20.2343 34.6266 20.9658 33.9486 21.872C32.9017 23.2717 31.5061 24.6464 29.6814 26.0763Z" fill="currentColor"/>
    <path d="M47.4597 42.4394L41.0446 38.1613C40.2668 37.6449 39.3451 37.3716 38.3787 37.3716C36.7648 37.3716 35.206 38.1189 34.1074 39.384C39.4051 43.4775 44.4313 46.714 48.8697 48.8842C48.9556 48.7069 49.0455 48.5335 49.1233 48.3489C50.0512 46.1439 49.3675 43.7134 47.4597 42.4394Z" fill="currentColor"/>
    <path d="M21.8356 18.9459L17.5606 12.5261C16.3297 10.6775 13.8062 9.95638 11.6558 10.8615C11.4866 10.9328 11.3261 11.0175 11.1621 11.0964C13.29 15.5156 16.5173 20.5456 20.6263 25.8531C22.6715 24.0466 23.2425 21.0684 21.8356 18.9459Z" fill="currentColor"/>
    <path d="M32.0324 42.1774C29.5535 40.5949 26.818 38.3472 24.2369 35.7629C21.6541 33.1786 19.4075 30.4395 17.8265 27.9591L18.9413 27.1468C14.8077 21.8048 11.5326 16.7171 9.33995 12.2137L8.93573 12.5104C8.69881 12.6995 8.47644 12.9053 8.2629 13.1193C7.08401 14.2988 6.20854 15.7577 5.66093 17.4567C3.29068 24.8272 7.42744 35.5135 15.9555 44.0489C22.8096 50.9092 31.0888 55.0055 38.1029 55.0055C39.6928 55.0055 41.1819 54.7862 42.527 54.3529C44.2224 53.8053 45.6802 52.9293 46.8602 51.7488C47.0742 51.5348 47.2795 51.3124 47.4972 51.0391L47.7444 50.7004C43.2275 48.4697 38.1537 45.202 32.8249 41.0873L32.0324 42.1774Z" fill="currentColor"/>
    </svg>
